<svg width="25" height="25" viewBox="0 0 25 25" fill="none" xmlns="http://www.w3.org/2000/svg">
<g clip-path="url(#clip0_3_66)">
<path d="M10.054 3.48575L10.0538 3.48599L9.3612 4.21097L8.99966 4.58945L8.63811 4.21097L7.94555 3.48599L7.94498 3.48539C6.34169 1.80149 3.77529 1.56052 2.07448 3.03279C0.0860855 4.75696 -0.0212428 7.8631 1.76113 9.73498L8.56343 16.8702C8.56346 16.8703 8.56349 16.8703 8.56353 16.8703C8.80595 17.1244 9.18985 17.1244 9.43228 16.8703C9.43231 16.8703 9.43234 16.8703 9.43237 16.8702L16.2349 9.73476L16.235 9.73466C18.0204 7.86287 17.9132 4.75709 15.925 3.03293L10.054 3.48575ZM10.054 3.48575C11.6611 1.80117 14.2243 1.56069 15.9249 3.03286L10.054 3.48575Z" stroke="#D60665"/>
</g>
<defs>
<clipPath id="clip0_3_66">
<rect width="25" height="25" fill="white"/>
</clipPath>
</defs>
</svg>
