<svg width="18" height="16" viewBox="0 0 18 16" fill="none" xmlns="http://www.w3.org/2000/svg">
<g clip-path="url(#clip0_3_74)">
<path d="M12.3273 9.83954L11.8522 10.3796L11.2418 10.8038C10.1704 11.5485 8.80901 12 7.3125 12C3.71135 12 1 9.43087 1 6.5C1 3.56913 3.71135 1 7.3125 1C10.9136 1 13.625 3.56913 13.625 6.5C13.625 7.74568 13.1511 8.9029 12.3273 9.83954ZM12.8125 11.625V11.5H13.0781H13.6225L16.8446 14.3641L16.1596 14.973L12.8125 11.9978V11.625ZM16.228 15.0338L16.2277 15.0335L16.228 15.0338ZM1.8125 6.5C1.8125 9.37273 4.38918 11.5 7.3125 11.5C10.2404 11.5 12.8125 9.36866 12.8125 6.5C12.8125 3.62727 10.2358 1.5 7.3125 1.5C4.3846 1.5 1.8125 3.63134 1.8125 6.5Z" stroke="#D60665" stroke-width="2"/>
</g>
<defs>
<clipPath id="clip0_3_74">
<rect width="18" height="16" fill="white"/>
</clipPath>
</defs>
</svg>
